<svg xmlns="http://www.w3.org/2000/svg" width="24" height="24" viewBox="0 0 48 48"><path fill="#1877F3" d="M24 4C12.95 4 4 12.95 4 24c0 9.94 7.66 18.13 17.44 19.82V30.89h-5.25v-6.89h5.25v-5.25c0-5.19 3.17-8.03 7.8-8.03 2.22 0 4.13.16 4.69.24v5.44h-3.22c-2.53 0-3.02 1.2-3.02 2.97v3.63h6.04l-.79 6.89h-5.25v12.93C40.34 42.13 48 33.94 48 24c0-11.05-8.95-20-20-20z"/><path fill="#FFF" d="M33.21 30.89l.79-6.89h-6.04v-3.63c0-1.77.49-2.97 3.02-2.97h3.22v-5.44c-.56-.08-2.47-.24-4.69-.24-4.63 0-7.8 2.84-7.8 8.03v5.25h-5.25v6.89h5.25v12.93c1.7.27 3.46.41 5.25.41s3.55-.14 5.25-.41V30.89h5.25z"/></svg> 