<svg xmlns="http://www.w3.org/2000/svg" width="24" height="24" viewBox="0 0 48 48"><g><path fill="#4285F4" d="M24 9.5c3.54 0 6.7 1.22 9.19 3.23l6.85-6.85C36.13 2.7 30.45 0 24 0 14.82 0 6.73 5.8 2.69 14.09l7.98 6.19C12.36 13.13 17.74 9.5 24 9.5z"/><path fill="#34A853" d="M46.1 24.55c0-1.64-.15-3.22-.43-4.74H24v9.01h12.44c-.54 2.9-2.18 5.36-4.65 7.01l7.19 5.6C43.98 37.13 46.1 31.3 46.1 24.55z"/><path fill="#FBBC05" d="M10.67 28.28c-.5-1.48-.78-3.05-.78-4.78s.28-3.3.78-4.78l-7.98-6.19C1.01 15.7 0 19.73 0 24s1.01 8.3 2.69 11.47l7.98-6.19z"/><path fill="#EA4335" d="M24 48c6.45 0 12.13-2.13 16.19-5.81l-7.19-5.6c-2.01 1.35-4.59 2.15-9 2.15-6.26 0-11.64-3.63-13.33-8.59l-7.98 6.19C6.73 42.2 14.82 48 24 48z"/></g></svg> 